<?xml version="1.0" encoding="UTF-8" standalone="no"?>
<!DOCTYPE svg PUBLIC "-//W3C//DTD SVG 1.1//EN" "http://www.w3.org/Graphics/SVG/1.1/DTD/svg11.dtd">
<svg width="100%" height="100%" viewBox="0 0 57 49" version="1.1" xmlns="http://www.w3.org/2000/svg" xmlns:xlink="http://www.w3.org/1999/xlink" xml:space="preserve" xmlns:serif="http://www.serif.com/" style="fill-rule:evenodd;clip-rule:evenodd;stroke-linejoin:round;stroke-miterlimit:2;">
    <g id="Artboard1" transform="matrix(1,0,0,1,-17,-17)">
        <rect x="17" y="17" width="56.7" height="48.2" style="fill:none;"/>
        <rect x="25.5" y="17" width="5.7" height="5.7" style="fill:rgb(241,241,241);"/>
        <rect x="34" y="17" width="5.7" height="5.7" style="fill:rgb(241,241,241);"/>
        <rect x="51" y="17" width="5.7" height="5.7" style="fill:rgb(241,241,241);"/>
        <rect x="59.5" y="17" width="5.7" height="5.7" style="fill:rgb(241,241,241);"/>
        <rect x="17" y="25.5" width="5.7" height="5.7" style="fill:rgb(241,241,241);"/>
        <rect x="25.5" y="25.5" width="5.7" height="5.7" style="fill:rgb(241,241,241);"/>
        <rect x="34" y="25.5" width="5.7" height="5.7" style="fill:rgb(241,241,241);"/>
        <rect x="42.5" y="25.5" width="5.7" height="5.7" style="fill:rgb(241,241,241);"/>
        <rect x="51" y="25.5" width="5.7" height="5.7" style="fill:rgb(241,241,241);"/>
        <rect x="59.5" y="25.5" width="5.7" height="5.7" style="fill:rgb(241,241,241);"/>
        <rect x="68" y="25.5" width="5.7" height="5.7" style="fill:rgb(241,241,241);"/>
        <rect x="17" y="34" width="5.7" height="5.7" style="fill:rgb(241,241,241);"/>
        <rect x="25.5" y="34" width="5.7" height="5.7" style="fill:rgb(241,241,241);"/>
        <rect x="34" y="34" width="5.7" height="5.7" style="fill:rgb(241,241,241);"/>
        <rect x="42.5" y="34" width="5.7" height="5.7" style="fill:rgb(241,241,241);"/>
        <rect x="51" y="34" width="5.7" height="5.7" style="fill:rgb(241,241,241);"/>
        <rect x="59.5" y="34" width="5.7" height="5.7" style="fill:rgb(241,241,241);"/>
        <rect x="68" y="34" width="5.7" height="5.7" style="fill:rgb(241,241,241);"/>
        <rect x="25.5" y="42.5" width="5.7" height="5.7" style="fill:rgb(241,241,241);"/>
        <rect x="34" y="42.5" width="5.7" height="5.7" style="fill:rgb(241,241,241);"/>
        <rect x="42.5" y="42.5" width="5.7" height="5.7" style="fill:rgb(241,241,241);"/>
        <rect x="51" y="42.5" width="5.7" height="5.7" style="fill:rgb(241,241,241);"/>
        <rect x="59.5" y="42.5" width="5.7" height="5.7" style="fill:rgb(241,241,241);"/>
        <rect x="34" y="51" width="5.7" height="5.7" style="fill:rgb(241,241,241);"/>
        <rect x="42.5" y="51" width="5.7" height="5.7" style="fill:rgb(241,241,241);"/>
        <rect x="51" y="51" width="5.7" height="5.7" style="fill:rgb(241,241,241);"/>
        <rect x="42.5" y="59.5" width="5.7" height="5.7" style="fill:rgb(241,241,241);"/>
    </g>
</svg>
